<?xml version="1.0" encoding="UTF-8" standalone="no"?>
<!-- Created with Inkscape (http://www.inkscape.org/) -->

<svg
   width="210mm"
   height="297mm"
   viewBox="0 0 210 297"
   version="1.1"
   id="svg1"
   xml:space="preserve"
   inkscape:version="1.3.2 (091e20e, 2023-11-25, custom)"
   sodipodi:docname="chatu.svg"
   xmlns:inkscape="http://www.inkscape.org/namespaces/inkscape"
   xmlns:sodipodi="http://sodipodi.sourceforge.net/DTD/sodipodi-0.dtd"
   xmlns="http://www.w3.org/2000/svg"
   xmlns:svg="http://www.w3.org/2000/svg"><sodipodi:namedview
     id="namedview1"
     pagecolor="#ffffff"
     bordercolor="#000000"
     borderopacity="0.25"
     inkscape:showpageshadow="2"
     inkscape:pageopacity="0.0"
     inkscape:pagecheckerboard="0"
     inkscape:deskcolor="#d1d1d1"
     inkscape:document-units="mm"
     inkscape:zoom="0.74177586"
     inkscape:cx="239.96467"
     inkscape:cy="200.19524"
     inkscape:window-width="1680"
     inkscape:window-height="987"
     inkscape:window-x="-8"
     inkscape:window-y="-8"
     inkscape:window-maximized="1"
     inkscape:current-layer="layer1"
     showguides="true"><sodipodi:guide
       position="27.917524,280.03746"
       orientation="0,-1"
       id="guide5"
       inkscape:locked="false" /><sodipodi:guide
       position="69.970502,252.47332"
       orientation="0,-1"
       id="guide6"
       inkscape:locked="false" /></sodipodi:namedview><defs
     id="defs1" /><g
     inkscape:label="Layer 1"
     inkscape:groupmode="layer"
     id="layer1"><path
       style="opacity:0.99;fill:#f2f2f2;fill-opacity:1;stroke:none;stroke-width:0.304412;stroke-linecap:round;stroke-linejoin:round;paint-order:stroke fill markers"
       d="m 156.04953,45.145109 h 3.71056 l 2.67985,-0.4245 0.20614,-1.2735 0.61843,-5.093999 -0.20615,-3.820498 v -1.273501 l 0.20615,-1.061248 1.03071,-0.63675 1.03071,-0.849001 -0.61843,-0.63675 -1.64914,-1.48575 -0.61842,-4.881749 v -3.396 l -1.64914,-2.759248 -1.44299,-0.636751 -119.768536,-0.4245 0.206142,28.653745 z"
       id="path6" /><path
       id="circle18"
       style="opacity:0.99;fill:#008080;fill-opacity:1;stroke:none;stroke-width:0.3;stroke-linecap:round;stroke-linejoin:round;stroke-opacity:1;paint-order:stroke fill markers"
       d="m 40.830328,12.674321 c -9.734003,2.1e-4 -17.561785,8.08044 -17.56171,17.814443 -7.5e-5,9.734003 7.890761,17.625071 17.624764,17.625281 4.270646,-0.0023 8.395212,-1.555058 11.607047,-4.369759 l -5.87962,-7.644621 -0.200547,-12.736514 6.14391,-6.226698 C 50.845861,15.675732 47.027517,12.89656 40.830328,12.674321 Z m 11.670101,31.069965 0.14314,0.14366"
       sodipodi:nodetypes="cccccccccc" /><g
       id="text1"
       style="font-style:italic;font-weight:bold;font-size:29.2816px;font-family:'Exo 2';-inkscape-font-specification:'Exo 2 Bold Italic';letter-spacing:-0.122007px;opacity:0.99;stroke:#000000;stroke-width:0.172923;stroke-linecap:round;stroke-linejoin:round;paint-order:stroke fill markers"
       aria-label="Chatu.py"><path
         style="font-style:normal;font-weight:900;-inkscape-font-specification:'Exo 2 Heavy';fill:#008080"
         d="m 65.810317,19.888007 q 1.581206,0 2.693907,0.08784 1.112701,0.08785 2.02043,0.263535 0.937012,0.146408 1.932586,0.439224 l -0.468506,4.626493 q -1.024856,-0.02928 -1.903304,-0.02928 -0.878448,0 -1.874022,0 -0.995575,-0.02928 -2.401091,-0.02928 -0.995575,0 -1.551925,0.439224 -0.527069,0.409943 -0.73204,1.522644 -0.204972,1.083419 -0.204972,3.133131 0,2.049712 0.204972,3.162413 0.204971,1.083419 0.73204,1.522643 0.55635,0.409942 1.551925,0.409942 2.19612,0 3.6602,-0.02928 1.493361,-0.05856 2.957441,-0.204971 l 0.468506,4.626493 q -1.522643,0.527068 -3.133131,0.73204 -1.581207,0.234252 -3.953016,0.234252 -3.338103,0 -5.358533,-0.995574 -2.020431,-1.024856 -2.928161,-3.308821 -0.878448,-2.283965 -0.878448,-6.149136 0,-3.865171 0.878448,-6.149136 0.90773,-2.283965 2.928161,-3.27954 2.02043,-1.024856 5.358533,-1.024856 z m 20.170128,5.504941 q 4.333677,0 4.333677,4.099424 V 40.443691 H 84.164986 V 31.45424 q 0,-0.497787 -0.234253,-0.673477 -0.234253,-0.204971 -0.819885,-0.204971 -0.55635,0 -1.259109,0.08785 -0.673477,0.08784 -1.786177,0.468505 l -0.644196,-2.664626 q 1.551925,-1.551924 3.250258,-2.313246 1.727615,-0.761322 3.308821,-0.761322 z m -5.270688,-5.446377 0.02928,4.362958 q 0,1.317672 -0.204971,2.547499 -0.175689,1.200546 -0.409942,1.932586 l 0.585632,0.351379 V 40.443691 H 74.56062 v -20.49712 z m 20.404403,5.446377 q 2.07899,0 3.48451,0.556351 1.4348,0.527069 2.16684,1.844741 0.76132,1.28839 0.76132,3.572355 v 9.077296 h -4.89003 l -0.84916,-3.133131 -0.40994,-0.585632 v -5.387815 q -0.0293,-0.761321 -0.40995,-1.1127 -0.35138,-0.35138 -1.317669,-0.35138 -1.141982,0 -2.811034,0.02928 -1.639769,0.02928 -3.513792,0.117126 l -0.55635,-3.894453 q 1.112701,-0.204971 2.635344,-0.351379 1.551925,-0.175689 3.074568,-0.263534 1.522643,-0.117127 2.635343,-0.117127 z m 4.04086,6.061292 -0.0293,2.957441 h -6.061291 q -0.55635,0 -0.849166,0.263535 -0.263535,0.234253 -0.263535,0.644195 v 0.468506 q 0,0.380661 0.292816,0.644195 0.322098,0.263534 0.937012,0.263534 0.702758,0 1.464084,-0.322097 0.76132,-0.351379 1.46408,-0.878448 0.70275,-0.527069 1.20054,-1.08342 v 1.874023 q -0.20497,0.497787 -0.64419,1.259109 -0.43923,0.761321 -1.20055,1.522643 -0.73204,0.761322 -1.84474,1.28839 -1.08342,0.497788 -2.606063,0.497788 -1.346954,0 -2.518218,-0.468506 -1.141982,-0.468506 -1.84474,-1.376235 -0.673477,-0.937011 -0.673477,-2.313247 v -1.46408 q 0,-1.756896 1.28839,-2.75247 1.317672,-1.024856 3.543074,-1.024856 z m 12.2934,-9.487239 V 35.11444 q 0,0.55635 0.29281,0.819885 0.29282,0.234253 0.9663,0.234253 h 1.55192 l 0.67348,3.923734 q -0.61492,0.263534 -1.52265,0.409942 -0.90773,0.17569 -1.84474,0.263535 -0.90773,0.08785 -1.61048,0.08785 -2.13756,0 -3.39667,-1.08342 -1.25911,-1.083419 -1.25911,-3.016004 L 111.27,21.967001 Z m 3.54307,3.83589 v 3.689481 h -12.18115 v -3.543073 l 2.81104,-0.146408 z m 7.54977,0 v 8.989451 q 0,0.468506 0.26353,0.702759 0.26354,0.204971 0.81989,0.204971 0.58563,0 1.20054,-0.08785 0.61492,-0.117126 1.61049,-0.497787 l 0.35138,3.016005 q -1.49336,1.376235 -2.95744,2.049712 -1.46408,0.673477 -3.10385,0.673477 -4.33368,0 -4.33368,-4.099424 V 25.802891 Z m 9.42868,0 v 14.6408 h -4.83147 l -0.76132,-2.986723 -0.58563,-0.351379 V 25.802891 Z"
         id="path13" /><path
         style="font-weight:300;font-size:14.6408px;-inkscape-font-specification:'Exo 2 Light Italic'"
         d="m 140.48326,38.877126 q 0.20498,0 0.26354,0.102485 0.0732,0.08785 0.0586,0.278175 l -0.11712,0.849167 q -0.0293,0.175689 -0.11713,0.263534 -0.0879,0.0732 -0.26354,0.0732 h -0.32209 q -0.3953,0 -0.33674,-0.380661 l 0.11712,-0.849166 q 0.0439,-0.336738 0.39531,-0.336738 z"
         id="path14" /><path
         style="font-style:normal;font-weight:900;font-size:14.6408px;-inkscape-font-specification:'Exo 2 Heavy';stroke:#008080"
         d="m 148.20873,32.947601 q 1.4348,0 2.03507,1.024856 0.60028,1.024856 0.60028,2.898879 0,1.508002 -0.3221,2.327887 -0.30746,0.819885 -0.92237,1.141983 -0.61491,0.307456 -1.52264,0.307456 -0.83453,0 -1.56657,-0.248893 -0.7174,-0.248894 -1.15662,-0.863807 l 0.20497,-1.200546 q 0.29281,0.102486 0.55635,0.204971 0.27817,0.102486 0.73204,0.102486 0.30746,0 0.48315,-0.102486 0.19033,-0.117126 0.26353,-0.483146 0.0878,-0.380661 0.0878,-1.156623 0,-0.790604 -0.0878,-1.156624 -0.0732,-0.380661 -0.24889,-0.483146 -0.17569,-0.102486 -0.45387,-0.102486 -0.38066,0 -0.60027,0.08785 -0.21961,0.0732 -0.45387,0.19033 l -0.42458,-1.156623 q 0.19033,-0.36602 0.60027,-0.658836 0.42459,-0.307457 0.99558,-0.483146 0.57099,-0.190331 1.20054,-0.190331 z m -2.9428,0.17569 0.29282,1.156623 0.3221,0.234253 v 4.846105 l -0.0879,0.17569 q 0.0439,0.468505 0.0732,1.024856 0.0293,0.55635 0.0146,1.068778 v 1.449439 h -3.07457 v -9.955744 z m 14.5481,0 -2.32789,7.115429 q -0.19033,0.600273 -0.55635,1.244468 -0.35138,0.644195 -0.93701,1.141983 -0.571,0.512428 -1.40552,0.717399 -0.83453,0.219612 -1.97651,-0.01464 l -0.20497,-1.654411 q 0.90773,-0.19033 1.4348,-0.512428 0.54171,-0.307456 0.81988,-0.92237 l 0.54171,-1.171264 q 0.16105,-0.36602 0.27818,-0.937011 0.13177,-0.570991 0.20497,-0.966293 l 0.86381,-4.040861 z m -5.62207,0 0.8638,4.040861 q 0.0586,0.336738 0.10249,0.688118 0.0439,0.351379 0.0879,0.688117 h 0.43922 l -0.95165,1.903304 h -0.67348 q -0.35138,0 -0.61491,-0.19033 -0.2489,-0.204971 -0.35138,-0.527069 l -2.16684,-6.603001 z"
         id="path15" /></g><g
       id="g5"
       transform="matrix(1.02206,0,0,1.02206,-0.58322631,-0.36837641)"><path
         style="opacity:0.99;fill:#00ffff;fill-opacity:1;stroke:none;stroke-width:0.3;stroke-linecap:round;stroke-linejoin:round;paint-order:stroke fill markers"
         d="m 34.920996,35.170877 -0.124941,2.873642 -4.872696,0.124942 -2.936113,-1.811645 0.124941,-5.934694 0.374822,-3.623289 0.874588,-1.624231 4.185521,-0.187411 2.561291,-0.06247 -0.187413,-3.185994 0.249881,-2.873642 1.062,-0.937057 4.872697,-0.374823 3.99811,0.249882 0.999527,1.561762 -0.06247,3.99811 0.124941,3.935639 -0.437293,2.686232 -1.811644,0.999527 -3.68576,0.06247 h -2.561288 l -2.623759,0.374822 -0.249883,1.874115 z"
         id="path4" /><path
         style="opacity:0.99;fill:#cccccc;fill-opacity:1;stroke:none;stroke-width:0.3;stroke-linecap:round;stroke-linejoin:round;paint-order:stroke fill markers"
         d="m 46.169437,26.373626 0.124941,-2.873642 4.872696,-0.124942 2.936113,1.811645 -0.124941,5.934694 -0.374822,3.623289 -0.874588,1.624231 -4.185521,0.187411 -2.561291,0.06247 0.187413,3.185994 -0.249881,2.873642 -1.062,0.937057 -4.872697,0.374823 -3.99811,-0.249882 -0.999527,-1.561762 0.06247,-3.99811 -0.124941,-3.935639 0.437293,-2.686232 1.811644,-0.999527 3.68576,-0.06247 h 2.561288 l 2.623759,-0.374822 0.249883,-1.874115 z"
         id="path5" /><path
         style="fill:#000000;stroke-width:0.57641"
         d="M 35.651011,44.472298 C 34.312307,43.85445 33.897163,42.969436 33.897163,40.733402 v -1.596806 l -2.795042,-0.04755 c -2.73384,-0.04652 -2.808456,-0.05643 -3.407607,-0.453346 -1.162873,-0.770338 -1.187787,-0.904521 -1.241346,-6.685857 -0.05072,-5.474951 -0.0077,-5.892163 0.693246,-6.725208 0.758925,-0.901926 1.333535,-1.045625 4.196231,-1.049378 l 2.554518,-0.0035 0.0033,-2.554518 c 0.0036,-2.768676 0.143523,-3.385787 0.931791,-4.110456 0.817893,-0.751898 1.207958,-0.807948 5.622728,-0.807948 4.414766,0 4.804834,0.05603 5.622726,0.807948 0.703883,0.64709 0.928147,1.413894 0.93179,3.185969 l 0.0035,1.630036 2.795043,0.04755 c 2.733839,0.04652 2.808455,0.05643 3.407611,0.453347 1.162873,0.770337 1.187785,0.90452 1.241345,6.685856 0.05072,5.474952 0.0077,5.892163 -0.693248,6.725209 -0.758925,0.901926 -1.333537,1.045625 -4.196232,1.049377 l -2.554519,0.0035 -0.0035,2.554517 c -0.0035,2.768677 -0.14352,3.385787 -0.93179,4.110456 -0.819661,0.753518 -1.203896,0.808179 -5.655956,0.8046 -3.718786,-0.0029 -4.225556,-0.03326 -4.770791,-0.284903 z m 9.178812,-1.873454 c 0.341004,-0.320357 0.35297,-0.41603 0.35297,-2.821407 V 37.287628 H 42.361387 39.53998 v -0.915051 -0.915051 h 6.204894 c 6.160812,0 6.207403,-0.0023 6.557866,-0.331598 l 0.352976,-0.331603 v -5.006197 c 0,-4.802851 -0.01239,-5.018584 -0.305019,-5.311216 -0.280371,-0.280366 -0.508365,-0.305014 -2.821407,-0.305014 h -2.516394 l -0.0035,2.554518 c -0.0035,2.821873 -0.13956,3.384997 -1.00685,4.173232 -0.754221,0.685473 -1.200472,0.745166 -5.570422,0.745166 -3.891631,0 -4.110121,0.01516 -4.399992,0.305019 -0.292575,0.292575 -0.305017,0.508359 -0.305017,5.289843 0,4.908133 0.0051,4.990254 0.331601,5.337795 0.330447,0.351743 0.345682,0.352976 4.374791,0.352976 3.941337,0 4.052083,-0.0084 4.396165,-0.331603 z M 41.370082,40.032781 V 39.11773 h 0.915051 0.915051 v 0.915051 0.915051 h -0.915051 -0.915051 z m -7.46957,-5.29967 c 0.0037,-2.821874 0.139563,-3.384998 1.006852,-4.173233 0.75422,-0.685473 1.200471,-0.745166 5.570424,-0.745166 3.891627,0 4.110121,-0.01516 4.399992,-0.305019 0.292574,-0.292574 0.305013,-0.508359 0.305013,-5.289843 0,-4.908133 -0.0052,-4.990254 -0.331603,-5.337795 -0.330444,-0.351742 -0.345679,-0.352976 -4.374786,-0.352976 -5.17444,0 -4.749139,-0.28236 -4.749139,3.15301 v 2.489809 h 2.82141 2.821407 v 0.915052 0.915051 h -6.204895 c -6.16081,0 -6.2074,0.0023 -6.557866,0.331597 l -0.352973,0.331603 v 5.006197 c 0,4.802852 0.01239,5.018585 0.305016,5.311217 0.28037,0.280366 0.508362,0.305013 2.821408,0.305013 h 2.516391 z m 3.809365,-13.306366 v -0.915051 h 0.915051 0.915052 v 0.915051 0.915051 h -0.915052 -0.915051 z"
         id="path1" /></g><path
       style="font-weight:300;font-size:6.1914px;font-family:'Exo 2';-inkscape-font-specification:'Exo 2 Light';letter-spacing:-0.0663364px;opacity:0.99;stroke:#000000;stroke-width:0.0940198;stroke-linecap:round;stroke-linejoin:round;paint-order:stroke fill markers"
       d="m 144.34499,26.077984 q 0.26004,0 0.44578,0.01238 0.19193,0.01238 0.35291,0.03715 0.16098,0.02477 0.33433,0.06811 l -0.0495,0.30957 q -0.18574,-0.02477 -0.34052,-0.03715 -0.1486,-0.01238 -0.32815,-0.01857 -0.17336,-0.01238 -0.41482,-0.01238 -0.45816,0 -0.7244,0.179551 -0.26623,0.173359 -0.37767,0.5758 -0.11145,0.402441 -0.11145,1.095878 0,0.693437 0.11145,1.095878 0.11144,0.402441 0.37767,0.581991 0.26624,0.17336 0.7244,0.17336 0.38387,0 0.6501,-0.01857 0.26623,-0.01857 0.52007,-0.05572 l 0.0495,0.303378 q -0.26003,0.06811 -0.53865,0.09906 -0.27242,0.03096 -0.68105,0.03096 -0.60057,0 -0.96586,-0.210508 -0.3591,-0.216699 -0.52008,-0.699628 -0.16097,-0.482929 -0.16097,-1.300194 0,-0.817265 0.16097,-1.300194 0.16098,-0.482929 0.52008,-0.693437 0.36529,-0.216699 0.96586,-0.216699 z m 3.36989,0.0743 v 4.272066 h -0.40864 v -4.272066 z m 1.42402,0 v 0.359101 h -3.25049 v -0.359101 z m 0.47851,3.609586 q 0.0867,0 0.11763,0.03715 0.0371,0.03715 0.0371,0.117636 v 0.35291 q 0,0.08668 -0.0371,0.123828 -0.0309,0.03096 -0.11763,0.03096 h -0.13621 q -0.0805,0 -0.11764,-0.03096 -0.0371,-0.03715 -0.0371,-0.123828 v -0.35291 q 0,-0.08049 0.0371,-0.117636 0.0371,-0.03715 0.11764,-0.03715 z m 5.99504,-3.609586 -0.95966,4.148238 q -0.0186,0.04953 -0.0619,0.08668 -0.0433,0.03715 -0.11144,0.03715 h -0.48912 q -0.0619,0 -0.11145,-0.03715 -0.0433,-0.03715 -0.0557,-0.09287 l -0.75535,-3.349548 q -0.0248,-0.123828 -0.0557,-0.241465 -0.0248,-0.123828 -0.0495,-0.241464 h -0.1424 q -0.0248,0.117636 -0.0495,0.241464 -0.0248,0.123828 -0.0495,0.241465 l -0.75535,3.349548 q -0.0124,0.05572 -0.0619,0.09287 -0.0433,0.03715 -0.10526,0.03715 h -0.49531 q -0.0619,0 -0.11145,-0.03715 -0.0433,-0.03715 -0.0557,-0.08668 l -0.95967,-4.148238 h 0.42721 l 0.78012,3.467184 q 0.0309,0.111445 0.0495,0.235273 0.0248,0.123828 0.0495,0.253848 h 0.15478 q 0.0248,-0.13002 0.0495,-0.247656 0.0248,-0.123828 0.0495,-0.241465 l 0.75535,-3.324782 q 0.0124,-0.0681 0.0557,-0.105254 0.0495,-0.03715 0.11145,-0.03715 h 0.47054 q 0.0619,0 0.10526,0.03715 0.0433,0.03715 0.0557,0.105254 l 0.76154,3.324782 q 0.031,0.123828 0.0495,0.247656 0.0248,0.117637 0.0433,0.241465 h 0.16098 q 0.0248,-0.123828 0.0433,-0.241465 0.0248,-0.123828 0.0495,-0.241465 l 0.78631,-3.473375 z m 1.84681,-0.0743 q 0.30338,0.0062 0.61295,0.03096 0.30957,0.02477 0.61914,0.08049 l -0.031,0.297187 q -0.27242,-0.01857 -0.58199,-0.03096 -0.30957,-0.01238 -0.60057,-0.01238 -0.25385,0 -0.43959,0.01857 -0.17955,0.01857 -0.29719,0.08668 -0.11763,0.06811 -0.17335,0.222891 -0.0495,0.154785 -0.0495,0.433398 0,0.39625 0.13621,0.563417 0.13622,0.160977 0.45198,0.222891 l 0.89775,0.185742 q 0.48293,0.09906 0.66867,0.377675 0.19193,0.278613 0.19193,0.792499 0,0.377676 -0.0867,0.606758 -0.0867,0.22289 -0.26003,0.340527 -0.16717,0.117636 -0.42721,0.160976 -0.26004,0.04334 -0.61295,0.04334 -0.22289,0 -0.55103,-0.01857 -0.32815,-0.01858 -0.74916,-0.08668 l 0.0309,-0.297187 q 0.31577,0.01238 0.52627,0.02477 0.2167,0.0062 0.39006,0.01238 0.17336,0 0.36529,0 0.3591,-0.0062 0.56961,-0.06191 0.21051,-0.05572 0.29719,-0.22289 0.0929,-0.167168 0.0929,-0.507695 0,-0.278613 -0.0619,-0.433398 -0.0557,-0.160976 -0.19194,-0.241465 -0.13002,-0.08668 -0.34052,-0.123828 l -0.91014,-0.191933 q -0.45816,-0.09287 -0.6501,-0.371484 -0.18574,-0.284804 -0.18574,-0.780117 0,-0.377675 0.0805,-0.600565 0.0867,-0.229082 0.24766,-0.340527 0.16716,-0.111446 0.42101,-0.142403 0.25385,-0.03715 0.60057,-0.03715 z"
       id="text3"
       aria-label="CT.WS" /><path
       style="font-weight:300;font-size:30.0169px;font-family:'Exo 2';-inkscape-font-specification:'Exo 2 Light';letter-spacing:-0.321609px;opacity:0.99;stroke-width:0.455823;stroke-linecap:round;stroke-linejoin:round;paint-order:stroke fill markers"
       d="m 159.40617,17.051914 q 1.68094,-0.09005 2.70152,0.330186 1.05059,0.420237 1.50084,1.320744 0.48027,0.87049 0.48027,2.281284 v 6.123447 q 0,0.960541 0.15009,1.380778 0.15008,0.420236 0.5403,0.600338 0.39022,0.180101 1.14065,0.420236 v 1.500845 q -0.69039,0.270152 -1.14065,0.480271 -0.42023,0.210118 -0.63035,0.600338 -0.1801,0.390219 -0.1801,1.200676 v 7.83441 q 0,1.380778 -0.48027,2.281285 -0.45026,0.900507 -1.50085,1.320743 -1.02057,0.420237 -2.70152,0.330186 v -1.230693 q 1.68095,0 2.25127,-0.690388 0.60034,-0.660372 0.60034,-2.101183 v -7.384158 q 0,-1.050591 0.24013,-1.650929 0.24014,-0.630355 0.81046,-1.020575 0.57032,-0.390219 1.59089,-0.720405 -0.99055,-0.210118 -1.56088,-0.570321 -0.5403,-0.360203 -0.75042,-1.050592 -0.21012,-0.690388 -0.21012,-1.891064 v -5.673194 q 0,-1.440811 -0.60033,-2.101183 -0.57033,-0.690389 -2.25127,-0.690389 z"
       id="text5"
       aria-label="}" /><path
       style="font-weight:300;font-size:19.7556px;font-family:'Exo 2';-inkscape-font-specification:'Exo 2 Light';letter-spacing:-2.6379px;opacity:0.99;stroke-width:0.3;stroke-linecap:round;stroke-linejoin:round;paint-order:stroke fill markers"
       d="m 64.659995,134.38896 v 13.63137 h -1.303869 v -13.63137 z m 4.543788,0 v 1.14583 h -10.37169 v -1.14583 z m 12.33686,0 q 0.553156,0 0.553156,0.57291 l 0.592668,13.05846 h -1.303869 l -0.533401,-12.54481 h -0.434624 l -3.556008,10.68778 q -0.118533,0.43463 -0.572912,0.43463 h -1.30387 q -0.454378,0 -0.592668,-0.43463 L 70.852863,135.47552 H 70.41824 l -0.513646,12.54481 h -1.303869 l 0.553156,-13.05846 q 0.03951,-0.57291 0.592668,-0.57291 h 1.560693 q 0.434623,0 0.553157,0.45438 l 2.983095,8.89003 q 0.177801,0.45437 0.296334,0.92851 0.138289,0.45438 0.296334,0.92851 h 0.414868 q 0.138289,-0.47413 0.276578,-0.92851 0.138289,-0.47414 0.296334,-0.96803 l 2.983096,-8.85051 q 0.118533,-0.45438 0.572912,-0.45438 z"
       id="path7"
       aria-label="TM" /><path
       style="opacity:0.99;fill:#f2f2f2;fill-opacity:1;stroke:none;stroke-width:0.304412;stroke-linecap:round;stroke-linejoin:round;paint-order:stroke fill markers"
       d="m 156.04953,124.52011 h 3.71056 l 2.67985,-0.4245 0.20614,-1.2735 0.61843,-5.094 -0.20615,-3.82049 v -1.2735 l 0.20615,-1.06125 1.03071,-0.63675 1.03071,-0.849 -0.61843,-0.63675 -1.64914,-1.48575 -0.61842,-4.88175 v -3.396003 l -1.64914,-2.759248 -1.44299,-0.636751 -119.768536,-0.4245 0.206142,28.653742 z"
       id="path8" /><text
       xml:space="preserve"
       style="font-style:italic;font-weight:bold;font-size:29.2816px;font-family:'Exo 2';-inkscape-font-specification:'Exo 2 Bold Italic';letter-spacing:-0.122007px;opacity:0.99;fill:#000000;fill-opacity:1;stroke:#000000;stroke-width:0.172923;stroke-linecap:round;stroke-linejoin:round;paint-order:stroke fill markers"
       x="55.708164"
       y="119.8187"
       id="text10"><tspan
         sodipodi:role="line"
         id="tspan10"
         x="55.708164"
         y="119.8187"
         style="font-style:normal;font-variant:normal;font-weight:900;font-stretch:normal;font-size:29.2816px;font-family:'Exo 2';-inkscape-font-specification:'Exo 2 Heavy';fill:#000000;fill-opacity:1;stroke-width:0.172923">Chatu<tspan
   style="font-style:italic;font-variant:normal;font-weight:300;font-stretch:normal;font-size:14.6408px;font-family:'Exo 2';-inkscape-font-specification:'Exo 2 Light Italic';stroke-width:0.172923"
   id="tspan9">.<tspan
   style="font-style:normal;font-variant:normal;font-weight:900;font-stretch:normal;font-family:'Exo 2';-inkscape-font-specification:'Exo 2 Heavy'"
   id="tspan8">py</tspan></tspan></tspan></text><g
       id="g12"
       transform="matrix(1.02206,0,0,1.02206,-0.58322631,79.006628)"><path
         style="opacity:0.99;fill:#4d4d4d;fill-opacity:1;stroke:none;stroke-width:0.3;stroke-linecap:round;stroke-linejoin:round;paint-order:stroke fill markers"
         d="m 34.920996,35.170877 -0.124941,2.873642 -4.872696,0.124942 -2.936113,-1.811645 0.124941,-5.934694 0.374822,-3.623289 0.874588,-1.624231 4.185521,-0.187411 2.561291,-0.06247 -0.187413,-3.185994 0.249881,-2.873642 1.062,-0.937057 4.872697,-0.374823 3.99811,0.249882 0.999527,1.561762 -0.06247,3.99811 0.124941,3.935639 -0.437293,2.686232 -1.811644,0.999527 -3.68576,0.06247 h -2.561288 l -2.623759,0.374822 -0.249883,1.874115 z"
         id="path10" /><path
         style="opacity:0.99;fill:#cccccc;fill-opacity:1;stroke:none;stroke-width:0.3;stroke-linecap:round;stroke-linejoin:round;paint-order:stroke fill markers"
         d="m 46.169437,26.373626 0.124941,-2.873642 4.872696,-0.124942 2.936113,1.811645 -0.124941,5.934694 -0.374822,3.623289 -0.874588,1.624231 -4.185521,0.187411 -2.561291,0.06247 0.187413,3.185994 -0.249881,2.873642 -1.062,0.937057 -4.872697,0.374823 -3.99811,-0.249882 -0.999527,-1.561762 0.06247,-3.99811 -0.124941,-3.935639 0.437293,-2.686232 1.811644,-0.999527 3.68576,-0.06247 h 2.561288 l 2.623759,-0.374822 0.249883,-1.874115 z"
         id="path11" /><path
         style="fill:#000000;stroke-width:0.57641"
         d="M 35.651011,44.472298 C 34.312307,43.85445 33.897163,42.969436 33.897163,40.733402 v -1.596806 l -2.795042,-0.04755 c -2.73384,-0.04652 -2.808456,-0.05643 -3.407607,-0.453346 -1.162873,-0.770338 -1.187787,-0.904521 -1.241346,-6.685857 -0.05072,-5.474951 -0.0077,-5.892163 0.693246,-6.725208 0.758925,-0.901926 1.333535,-1.045625 4.196231,-1.049378 l 2.554518,-0.0035 0.0033,-2.554518 c 0.0036,-2.768676 0.143523,-3.385787 0.931791,-4.110456 0.817893,-0.751898 1.207958,-0.807948 5.622728,-0.807948 4.414766,0 4.804834,0.05603 5.622726,0.807948 0.703883,0.64709 0.928147,1.413894 0.93179,3.185969 l 0.0035,1.630036 2.795043,0.04755 c 2.733839,0.04652 2.808455,0.05643 3.407611,0.453347 1.162873,0.770337 1.187785,0.90452 1.241345,6.685856 0.05072,5.474952 0.0077,5.892163 -0.693248,6.725209 -0.758925,0.901926 -1.333537,1.045625 -4.196232,1.049377 l -2.554519,0.0035 -0.0035,2.554517 c -0.0035,2.768677 -0.14352,3.385787 -0.93179,4.110456 -0.819661,0.753518 -1.203896,0.808179 -5.655956,0.8046 -3.718786,-0.0029 -4.225556,-0.03326 -4.770791,-0.284903 z m 9.178812,-1.873454 c 0.341004,-0.320357 0.35297,-0.41603 0.35297,-2.821407 V 37.287628 H 42.361387 39.53998 v -0.915051 -0.915051 h 6.204894 c 6.160812,0 6.207403,-0.0023 6.557866,-0.331598 l 0.352976,-0.331603 v -5.006197 c 0,-4.802851 -0.01239,-5.018584 -0.305019,-5.311216 -0.280371,-0.280366 -0.508365,-0.305014 -2.821407,-0.305014 h -2.516394 l -0.0035,2.554518 c -0.0035,2.821873 -0.13956,3.384997 -1.00685,4.173232 -0.754221,0.685473 -1.200472,0.745166 -5.570422,0.745166 -3.891631,0 -4.110121,0.01516 -4.399992,0.305019 -0.292575,0.292575 -0.305017,0.508359 -0.305017,5.289843 0,4.908133 0.0051,4.990254 0.331601,5.337795 0.330447,0.351743 0.345682,0.352976 4.374791,0.352976 3.941337,0 4.052083,-0.0084 4.396165,-0.331603 z M 41.370082,40.032781 V 39.11773 h 0.915051 0.915051 v 0.915051 0.915051 h -0.915051 -0.915051 z m -7.46957,-5.29967 c 0.0037,-2.821874 0.139563,-3.384998 1.006852,-4.173233 0.75422,-0.685473 1.200471,-0.745166 5.570424,-0.745166 3.891627,0 4.110121,-0.01516 4.399992,-0.305019 0.292574,-0.292574 0.305013,-0.508359 0.305013,-5.289843 0,-4.908133 -0.0052,-4.990254 -0.331603,-5.337795 -0.330444,-0.351742 -0.345679,-0.352976 -4.374786,-0.352976 -5.17444,0 -4.749139,-0.28236 -4.749139,3.15301 v 2.489809 h 2.82141 2.821407 v 0.915052 0.915051 h -6.204895 c -6.16081,0 -6.2074,0.0023 -6.557866,0.331597 l -0.352973,0.331603 v 5.006197 c 0,4.802852 0.01239,5.018585 0.305016,5.311217 0.28037,0.280366 0.508362,0.305013 2.821408,0.305013 h 2.516391 z m 3.809365,-13.306366 v -0.915051 h 0.915051 0.915052 v 0.915051 0.915051 h -0.915052 -0.915051 z"
         id="path12" /></g><text
       xml:space="preserve"
       style="font-style:italic;font-variant:normal;font-weight:300;font-stretch:normal;font-size:6.1914px;font-family:'Exo 2';-inkscape-font-specification:'Exo 2 Light Italic';letter-spacing:-0.0663364px;opacity:0.99;fill:#000000;fill-opacity:1;stroke:#000000;stroke-width:0.0940198;stroke-linecap:round;stroke-linejoin:round;paint-order:stroke fill markers"
       x="142.28944"
       y="109.79935"
       id="text12"><tspan
         sodipodi:role="line"
         id="tspan12"
         x="142.28944"
         y="109.79935"
         style="font-style:normal;font-variant:normal;font-weight:300;font-stretch:normal;font-size:6.1914px;font-family:'Exo 2';-inkscape-font-specification:'Exo 2 Light';stroke-width:0.0940198">CT.WS</tspan></text><text
       xml:space="preserve"
       style="font-style:normal;font-variant:normal;font-weight:900;font-stretch:normal;font-size:30.0169px;font-family:'Exo 2';-inkscape-font-specification:'Exo 2 Heavy';letter-spacing:-0.321609px;opacity:0.99;fill:#000000;fill-opacity:1;stroke:none;stroke-width:0.455823;stroke-linecap:round;stroke-linejoin:round;paint-order:stroke fill markers"
       x="158.02539"
       y="119.4799"
       id="text13"><tspan
         sodipodi:role="line"
         id="tspan13"
         x="158.02539"
         y="119.4799"
         style="font-style:normal;font-variant:normal;font-weight:300;font-stretch:normal;font-family:'Exo 2';-inkscape-font-specification:'Exo 2 Light';fill:#000000;stroke-width:0.455823">}</tspan></text><path
       style="font-weight:300;font-size:19.7556px;font-family:'Exo 2';-inkscape-font-specification:'Exo 2 Light';letter-spacing:-2.6379px;opacity:0.99;stroke-width:0.0485269;stroke-linecap:round;stroke-linejoin:round;paint-order:stroke fill markers"
       d="m 69.257328,29.452323 v 2.204959 h -0.210909 v -2.204959 z m 0.734986,0 v 0.185344 h -1.677686 v -0.185344 z m 1.995564,0 q 0.08948,0 0.08948,0.09267 l 0.09587,2.112287 h -0.210909 l -0.08628,-2.029201 h -0.0703 l -0.575206,1.728815 q -0.01917,0.0703 -0.09267,0.0703 h -0.210909 q -0.0735,0 -0.09587,-0.0703 l -0.572011,-1.728815 h -0.0703 l -0.08309,2.029201 h -0.210918 l 0.08948,-2.112287 q 0.0064,-0.09267 0.09587,-0.09267 h 0.252452 q 0.0703,0 0.08948,0.0735 l 0.482534,1.438016 q 0.02876,0.0735 0.04793,0.150193 0.02237,0.0735 0.04793,0.150193 h 0.06711 q 0.02237,-0.07669 0.04474,-0.150193 0.02237,-0.07669 0.04793,-0.156584 l 0.482534,-1.431625 q 0.01917,-0.0735 0.09267,-0.0735 z"
       id="text6"
       aria-label="TM" /><text
       xml:space="preserve"
       style="font-style:italic;font-variant:normal;font-weight:300;font-stretch:normal;font-size:5.74113px;font-family:'Exo 2';-inkscape-font-specification:'Exo 2 Light Italic';letter-spacing:-0.0615121px;opacity:0.99;fill:#000000;fill-opacity:1;stroke:#000000;stroke-width:0.0871822;stroke-linecap:round;stroke-linejoin:round;paint-order:stroke fill markers"
       x="142.1053"
       y="24.818697"
       id="text15"><tspan
         sodipodi:role="line"
         id="tspan15"
         x="142.1053"
         y="24.818697"
         style="font-style:normal;font-variant:normal;font-weight:bold;font-stretch:normal;font-size:5.74113px;font-family:'Exo 2';-inkscape-font-specification:'Exo 2 Light';stroke-width:0.0871822">OpenS</tspan></text><circle
       style="opacity:0.99;fill:#800000;fill-opacity:1;stroke:#000000;stroke-width:0.3;stroke-linecap:round;stroke-linejoin:round;stroke-opacity:1;paint-order:stroke fill markers"
       id="circle17"
       cx="40.919201"
       cy="72.739288"
       r="17.625145" /><path
       style="opacity:0.99;fill:#ff0000;fill-opacity:1;stroke:#000000;stroke-width:0.3;stroke-linecap:round;stroke-linejoin:round;stroke-opacity:1;paint-order:stroke fill markers"
       d="m 45.763537,79.232765 6.905757,6.905757 c 7.201478,-6.416626 8.441353,-17.933971 0,-26.695396 l -6.854221,5.823514 z"
       id="path18"
       sodipodi:nodetypes="ccccc" /></g></svg>
